<svg 
          width="16.9716796875" 
          height="18.73828125" fill="none" 
          xmlns="http://www.w3.org/2000/svg">
          <path d="M 1.458984375 15.1171875 L 15.5126953125 15.1171875 C 16.41796875 15.1171875 16.9716796875 14.625 16.9716796875 13.88671875 C 16.9716796875 12.955078125 16.1279296875 12.1552734375 15.3369140625 11.3994140625 C 14.712890625 10.79296875 14.572265625 9.52734375 14.4580078125 8.3583984375 C 14.3173828125 5.1416015625 13.376953125 2.8740234375 11.1005859375 2.056640625 C 10.740234375 0.896484375 9.7822265625 0 8.4814453125 0 C 7.189453125 0 6.2314453125 0.896484375 5.8623046875 2.056640625 C 3.5947265625 2.8740234375 2.6455078125 5.1416015625 2.513671875 8.3583984375 C 2.3994140625 9.52734375 2.25 10.79296875 1.634765625 11.3994140625 C 0.84375 12.1552734375 0 12.955078125 0 13.88671875 C 0 14.625 0.5537109375 15.1171875 1.458984375 15.1171875 Z M 8.4814453125 18.73828125 C 10.0458984375 18.73828125 11.1796875 17.6220703125 11.2939453125 16.34765625 L 5.677734375 16.34765625 C 5.7919921875 17.6220703125 6.92578125 18.73828125 8.4814453125 18.73828125 Z" fill="rgb(249.00000035762787,249.00000035762787,249.00000035762787)"/>
        </svg>